<?xml version="1.0" encoding="UTF-8" standalone="no"?>
<!-- Creator: CorelDRAW X8 -->

<svg
   xmlns:dc="http://purl.org/dc/elements/1.1/"
   xmlns:cc="http://creativecommons.org/ns#"
   xmlns:rdf="http://www.w3.org/1999/02/22-rdf-syntax-ns#"
   xmlns:svg="http://www.w3.org/2000/svg"
   xmlns="http://www.w3.org/2000/svg"
   xmlns:sodipodi="http://sodipodi.sourceforge.net/DTD/sodipodi-0.dtd"
   xmlns:inkscape="http://www.inkscape.org/namespaces/inkscape"
   xml:space="preserve"
   width="293.30002mm"
   height="300.51639mm"
   version="1.1"
   style="clip-rule:evenodd;fill-rule:evenodd;image-rendering:optimizeQuality;shape-rendering:geometricPrecision;text-rendering:geometricPrecision"
   viewBox="0 0 29329.729 30051.639"
   id="svg2"
   inkscape:version="0.91 r13725"
   sodipodi:docname="Mandalas.svg"><metadata
     id="metadata467"><rdf:RDF><cc:Work
         rdf:about=""><dc:format>image/svg+xml</dc:format><dc:type
           rdf:resource="http://purl.org/dc/dcmitype/StillImage" /><dc:title></dc:title></cc:Work></rdf:RDF></metadata><sodipodi:namedview
     pagecolor="#ffffff"
     bordercolor="#666666"
     borderopacity="1"
     objecttolerance="10"
     gridtolerance="10"
     guidetolerance="10"
     inkscape:pageopacity="0"
     inkscape:pageshadow="2"
     inkscape:window-width="1536"
     inkscape:window-height="803"
     id="namedview465"
     showgrid="false"
     fit-margin-top="0"
     fit-margin-left="0"
     fit-margin-right="0"
     fit-margin-bottom="0"
     inkscape:zoom="0.34962963"
     inkscape:cx="500.98963"
     inkscape:cy="526.11874"
     inkscape:window-x="-8"
     inkscape:window-y="-8"
     inkscape:window-maximized="1"
     inkscape:current-layer="svg2" /><defs
     id="defs4"><style
       type="text/css"
       id="style6"><![CDATA[
    .fil2 {fill:#00A1DB}
    .fil3 {fill:#0095C9}
    .fil4 {fill:#0088B7}
    .fil5 {fill:#007BA5}
    .fil6 {fill:#006E94}
    .fil7 {fill:#006283}
    .fil8 {fill:#005672}
    .fil9 {fill:#004960}
    .fil10 {fill:#00A859}
    .fil11 {fill:#009B54}
    .fil12 {fill:#008F4F}
    .fil13 {fill:#008349}
    .fil14 {fill:#007744}
    .fil15 {fill:#006B3E}
    .fil16 {fill:#006038}
    .fil17 {fill:#005432}
    .fil18 {fill:#00482D}
    .fil0 {fill:black}
    .fil1 {fill:#FDFDFD}
   ]]></style></defs><g
     id="g5050"><path
       style="fill:#000000"
       inkscape:connector-curvature="0"
       id="path11"
       d="m 11802.9,1686.6372 c -1050,-476 -2584.9999,95 -3684.9999,-268 -492,1397 -1175,1051 -2115,3097 -730,-62 -1199,115 -1701,350 -180,84 -1245,624 -1339,709 -205,187 -409,1207 -489,1560 -183,800 -99,1020 -3,1770 -1540.00001,1390.9998 -705,700 -1787.00001,2088.9998 -216,278 -438,407 -683.99999776,666 421.99999776,1241 213.99999776,229 466.99999776,1795 107,660 267,1300 578.00001,1738 -105.00001,213 -289.00001,381 -418.00001,621 -131,246 -224,517 -309,824 -500,1815 -444,1797 727.00001,3167 677,790 927,681 1269,969 -210,1115 518,1974 586,3670 1239,106 1992,1214 3455,1354 56,674 422,1208 765,1639 179,224 364,431 553,650 247,286 298,518 739,528 1199,4 2077.9999,176 2966.9999,-344 236,110 461,338 705,487 256,155 563,306 846,425 1418,596 479,120 1699,869 319,-88 456,-305 764,-460 292,-147 601,-243 906,-368 645,-263 1181,-563 1580,-946 241,50 424,190 714,262 319,80 622,101 981,105 336,3 657,-16 991,-24 533,-12 566,87 836,-229 521,-612 1488,-1558 1573,-2594 1464,-140 2216,-1248 3455,-1354 70,-1718 794,-2531 587,-3670 473,-398 1061,-358 2214,-2215 203,-328 -98,-1463 -204,-1865 -294,-1115 -515,-1041 -741,-1501 535,-756 535,-1785 719,-2657 70,-332 223,-574 326,-876 -888,-935 -262,-83 -1205,-1417 -198,-279.9998 -355,-493.9998 -555,-713.9998 -262,-288 -450,-388 -712,-624 98,-762 172,-978 -4,-1770 -372,-1671 -209,-1511 -1826,-2269 -503,-235 -972,-412 -1702,-350 -927,-2017 -1622,-1734 -2094,-3062 -1754,191 -1128,35 -2576,35 -358,0 -845,69 -1130,198 -377,-297 -402,-606 -1222,-1026.99999 -1746,-895 -1556,-856 -3231,-24 -863,428.99999 -873,737.99999 -1270,1050.99999 z"
       class="fil0" /><path
       style="fill:#fdfdfd"
       inkscape:connector-curvature="0"
       id="path13"
       d="m 4130.9001,6601.6372 c -122,1316 -685,3178 184,3990.9998 135,-59 671,-380 830,-487 -491,-1076.9998 -158,-1568.9998 -141,-2833.9998 1036,-124 1676,-785 2756,-434 52,-124 276,-829 292,-963 -815,-359 -1204,-261 -2049,56 -578,217 -1228,517 -1872,671 z"
       class="fil1" /><path
       style="fill:#fdfdfd"
       inkscape:connector-curvature="0"
       id="path15"
       d="m 21276.9,5874.6372 c 16,134 240,839 292,963 1079,-350 1722,310 2756,434 17,1265 350,1757 -141,2833.9998 160,107 695,428 830,487 870,-813.9998 303,-2669.9998 184,-3990.9998 -1735,-413 -2475,-1365 -3921,-727 z"
       class="fil1" /><path
       style="fill:#fdfdfd"
       inkscape:connector-curvature="0"
       id="path17"
       d="m 1561.9001,18018.637 c 193,230 440,424 667,671 630,686 1409,1703 2368,1703 267,0 194,-142 217,-389 21,-227 36,-378 104,-572 -263,-173 -537,-19 -1264,-683 -359,-327 -590,-680 -1043,-935 178,-716 697,-2091 1353,-2477 -125,-275 -343,-503 -505,-842 -1005,262 -1250,1521 -1548,2465 -92,289 -311,786 -349,1059 z"
       class="fil1" /><path
       style="fill:#fdfdfd"
       inkscape:connector-curvature="0"
       id="path19"
       d="m 25364.9,15336.637 c 656,386 1175,1761 1353,2477 -452,255 -684,608 -1042,935 -719,656 -1006,513 -1265,683 112,320 88,594 136,759 l 46,107 c 5,13 16,35 28,49 576,294 1522,-635 1762,-889 l 1385,-1439 -654,-2028 c -236,-692 -548,-1315 -1244,-1496 -162,339 -380,567 -505,842 z"
       class="fil1" /><path
       style="fill:#fdfdfd"
       inkscape:connector-curvature="0"
       id="path21"
       d="m 8856.9001,27178.637 c 375,-170 1579.9999,-152 2134.9999,-227 838,-113 1285,-256 1652,-809 -76,-210 -159,-213 -319,-379 -129,-134 -213,-255 -321,-385 -376,321 -560,446 -1189,558 -417,73 -1161.9999,194 -1553.9999,224 -240,-846 -1217,-1532 -1018,-2604 l -1003,-69 c -248,1235 400,1833 1066,2831 183,274 372,634 551,860 z"
       class="fil1" /><path
       style="fill:#fdfdfd"
       inkscape:connector-curvature="0"
       id="path23"
       d="m 21086.9,23559.637 c 198,1068 -771,1760 -1019,2596 -357,-18 -1164,-151 -1554,-219 -628,-112 -813,-237 -1189,-558 l -639,764 c 818,1235 2936,650 3787,1036 l 1096,-1658 c 420,-639 712,-1079 521,-2035 l -1003,74 z"
       class="fil1" /><path
       style="fill:#fdfdfd"
       inkscape:connector-curvature="0"
       id="path25"
       d="m 5124.9001,20349.637 c 0,348 86,858 158,1222 104,519 54,731 476,938 925,453 2575,1191 3495,242 l -187,-551 c -1134,486 -2728,-540 -2736,-549 -70,-234 -240,-1169 -255,-1441 -40,-724 44,-911 350,-1337 l -542,-303 c -446,412 -759,973 -759,1779 z"
       class="fil1" /><path
       style="fill:#fdfdfd"
       inkscape:connector-curvature="0"
       id="path27"
       d="m 8361.9001,8033.6372 533,-67 c -15,-1116 205,-1447 1141.9999,-2543 1359,-37 2020,-32 2711,698 149,-225 265,-269 395,-467 -528,-1138 -1861,-1263 -3246.9999,-1263 -438,0 -376,38 -810,596 -574,736 -1428,2189 -724,3046 z"
       class="fil1" /><path
       style="fill:#fdfdfd"
       inkscape:connector-curvature="0"
       id="path29"
       d="m 22905.9,18879.637 c 303,420 388,607 347,1331 -15,272 -184,1207 -255,1441 -8,10 -1612,1032 -2717,555 l -208,544 c 929,951 2537,216 3449,-219 465,-222 397,-327 512,-900 233,-1158 352,-2197 -574,-3033 l -554,281 z"
       class="fil1" /><path
       style="fill:#fdfdfd"
       inkscape:connector-curvature="0"
       id="path31"
       d="m 22823.9,10997.637 c 1186,-37 2209,1641 2211,1651 -62,389 -250,1107 -393,1466 -264,666 -366,639 -869,1007 l 313,490 c 1530,-140 2074,-2992 2017,-3218 -67,-269 -1010,-1226 -1206,-1393 -503,-430 -1019,-764 -1970,-650 l -103,647 z"
       class="fil1" /><path
       style="fill:#fdfdfd"
       inkscape:connector-curvature="0"
       id="path33"
       d="m 11956.9,24100.637 c 44,836 463,1328 957,1710 232,180 1414,927 1725,944 158,9 2642,-866 2731,-2649 l -549,-220 -133,291 c -370,850 -1877,1454 -1996,1462 -209,14 -1473,-640 -1846,-1104 l -313,-601 c -4,-10 -14,-31 -23,-46 l -553,213 z"
       class="fil1" /><path
       style="fill:#fdfdfd"
       inkscape:connector-curvature="0"
       id="path35"
       d="m 16185.9,5654.6372 c 128,208 240,233 395,467 691,-730 1353,-735 2711,-698 939,1098 1158,1427 1142,2548 l 535,41 c 503,-594 164,-1586 -161,-2176 l -877,-1244 c -225,-268 -246,-201 -851,-201 -1353,0 -2451,311 -2894,1263 z"
       class="fil1" /><path
       style="fill:#fdfdfd"
       inkscape:connector-curvature="0"
       id="path37"
       d="m 5232.9001,15605.637 322,-485 c -487,-356 -583,-320 -848,-956 -148,-356 -349,-1114 -413,-1516 3,-10 1025,-1688 2189,-1648 l -61,-653 c -952,-109 -1467,214 -1952,621 -207,173 -1174,1146 -1244,1425 -58,229 495,3085 2007,3212 z"
       class="fil1" /><path
       style="fill:#fdfdfd"
       inkscape:connector-curvature="0"
       id="path39"
       d="m 13450.9,14014.637 c -21,283 30,524 -41,804 -66,259 -192,348 -267,588 729,339 632,710 871,1034 400,-198 901,-198 1301,0 134,-181 146,-385 311,-606 160,-214 314,-314 560,-428 -74,-240 -203,-329 -268,-587 -69,-276 -19,-524 -40,-805 -824,-71 -761,-216 -1228,-565 -359,375 -500,505 -1199,565 z"
       class="fil1" /><path
       style="fill:#fdfdfd"
       inkscape:connector-curvature="0"
       id="path41"
       d="m 17752.9,3252.6372 c 100,231 233,528 266,850 l 1772,-70 c 292,0 1114,1244 1274,1544 832,-316 1407,-379 328,-1670 -165,-198 -322,-327 -480,-506 -162,-183 -263,-345 -420,-543 -1102,-20 -2067,-213 -2740,395 z"
       class="fil1" /><path
       style="fill:#fdfdfd"
       inkscape:connector-curvature="0"
       id="path43"
       d="m 3675.9001,21409.637 c 0,747 372,1278 450,2026 1112,337 1220,1052 2650,857 25,-327 13,-631 129,-885 -832,-532 -1637,-356 -1832,-1136 -43,-172 -84,-365 -117,-518 -76,-358 -133,-659 -164,-1033 l -906,-67 c -96,210 -210,405 -210,756 z"
       class="fil1" /><path
       style="fill:#fdfdfd"
       inkscape:connector-curvature="0"
       id="path45"
       d="m 8263.9001,5576.6372 c 240,-449 631,-965 975,-1355 335,-378 1352.9999,-136 2071.9999,-119 32,-322 165,-619 265,-850 -777,-702 -1648.9999,-335 -2739.9999,-395 -500,633 -1630,1693 -1452,2282 66,219 125,147 394,232 196,62 292,131 486,205 z"
       class="fil1" /><path
       style="fill:#fdfdfd"
       inkscape:connector-curvature="0"
       id="path47"
       d="m 2548.9001,14611.637 c 508,-401 567,-341 748,-479 -138,-317 -569,-1561 -407,-1917 122,-270 917,-1142 1130,-1333 -31,-68 -427,-705 -482,-777 -829,93 -1102,721 -1519,1310 -534,754 -568,149 -210,2043 114,597 302,920 740,1153 z"
       class="fil1" /><path
       style="fill:#fdfdfd"
       inkscape:connector-curvature="0"
       id="path49"
       d="m 24538.9,20744.637 c -33,350 -90,651 -166,1009 -72,340 -115,733 -306,895 -344,291 -1272,522 -1643,759 116,254 104,558 129,885 1430,194 1536,-520 2650,-857 133,-1275 781,-1519 238,-2804 l -902,113 z"
       class="fil1" /><path
       style="fill:#fdfdfd"
       inkscape:connector-curvature="0"
       id="path51"
       d="m 25309.9,10882.637 c 214,195 1005,1060 1129,1333 159,351 -263,1586 -407,1917 210,159 229,59 749,482 754,-404 725,-1156 859,-1954 148,-876 382,-270 -703,-1791 -263,-369 -549,-697 -1145,-764 -56,72 -451,709 -482,777 z"
       class="fil1" /><path
       style="fill:#fdfdfd"
       inkscape:connector-curvature="0"
       id="path53"
       d="m 25748.9,20465.637 c 609,1024 18,1783 -161,2784 l -57,291 c -5,18 -13,39 -18,55 l -43,107 c -486,192 -700,312 -1131,562 -509,296 -1242,652 -1843,352 -139,161 -294,492 -376,745 2019,381 2555,-1015 3942,-1211 102,-1109 1152,-3282 295,-4142 -204,161 -348,310 -608,457 z"
       class="fil1" /><path
       style="fill:#fdfdfd"
       inkscape:connector-curvature="0"
       id="path55"
       d="m 2637.9001,21055.637 c 0,1167 522,1930 630,3095 1386,196 1922,1592 3941,1211 -82,-253 -237,-584 -376,-745 -601,300 -1334,-56 -1843,-352 -1455,-845 -955,60 -1558,-2116 -188,-681 -165,-1157 148,-1683 -260,-147 -404,-296 -608,-457 -209,211 -334,638 -334,1047 z"
       class="fil1" /><path
       style="fill:#fdfdfd"
       inkscape:connector-curvature="0"
       id="path57"
       d="m 21363.9,15312.637 c 226,307 282,-19 794,42 379,46 628,176 829,381 188,192 888,1208 976,1443 -791,281 -1389,1129 -2375,800 -376,-125 -414,-387 -714,-356 16,152 16,78 88,208 340,605 70,522 458,747 1092,635 2238,-784 3237,-1268 -772,-1221 -1201,-2566 -2258,-2576 -561,-5 -205,116 -1035,579 z"
       class="fil1" /><path
       style="fill:#fdfdfd"
       inkscape:connector-curvature="0"
       id="path59"
       d="m 19147.9,9540.6372 c 0,326 -131,191 3,418 338,-131 289,-756 1017,-955 454,-125 1408,39 1962,39 -26,362 -206,1546.9998 -324,1815.9998 -422,968 -1099,520 -1225,943 562,307 1459,279 1799,-587 237,-605 157,-1835.9998 305,-2595.9998 -1048,0 -2458,-670 -3248,6 -448,383 -289,376 -289,916 z"
       class="fil1" /><path
       style="fill:#fdfdfd"
       inkscape:connector-curvature="0"
       id="path61"
       d="m 4671.9001,17309.637 c 1144,554 2049,1877 3190,1293 306,-157 246,-146 347,-434 101,-288 227,-324 246,-546 -358,-36 -689,713 -1676,331 -465,-179 -898,-592 -1413,-775 91,-243 746,-1192 942,-1406 197,-216 423,-347 803,-408 528,-85 632,250 854,-53 -853,-470 -427,-550 -981,-577 -447,-23 -827,226 -1063,511 l -1249,2064 z"
       class="fil1" /><path
       style="fill:#fdfdfd"
       inkscape:connector-curvature="0"
       id="path63"
       d="m 18829.9,23608.637 c -272,-49 -1356,-480 -1607,-627 -825,-483 -450,-1156 -707,-1478 -51,23 -462,749 -427,984 137,936 960,1156 1756,1356 468,118 811,260 1235,387 130,-200 300,-757 423,-1056 310,-751 777,-1542 188,-2304 -248,-321 -223,-118 -1082,-428 -127,457 694,334 690,1390 -1,334 -364,1401 -469,1776 z"
       class="fil1" /><path
       style="fill:#fdfdfd"
       inkscape:connector-curvature="0"
       id="path65"
       d="m 23405.9,5581.6372 c 601,197 1455,662 2115,711 l 269,2305 692,124 c 325,-503 -123,-2641 -426,-2905 -334,-292 -1799,-1013 -2634,-977 l -16,742 z"
       class="fil1" /><path
       style="fill:#fdfdfd"
       inkscape:connector-curvature="0"
       id="path67"
       d="m 2703.9001,8056.6372 c 0,268 45,522 148,684 l 654,-164 321,-2281 c 593,-48 1543,-515 2104,-718 l -15,-738 c -853,-37 -2621,769 -2780,1192 -68,181 -128,447 -184,661 -108,407 -248,917 -248,1364 z"
       class="fil1" /><path
       style="fill:#fdfdfd"
       inkscape:connector-curvature="0"
       id="path69"
       d="m 12649.9,7209.6372 c 0,809 295,672 601,957 163,152 44,130 235,230 179,-315 -537,-888 90,-1749 142,-195 955,-1088 1101,-1172 187,152 883,927 1075,1173 630,811 -82,1442 91,1748 228,-120 -14,-74 534,-426 266,-171 302,-374 302,-761 0,-982 -1540,-1749 -1996,-2454 -403,393 -674,670 -1143,1081 -319,279 -890,727 -890,1373 z"
       class="fil1" /><path
       style="fill:#fdfdfd"
       inkscape:connector-curvature="0"
       id="path71"
       d="m 6643.9001,8618.6372 c 255,1309 -152,2754.9998 956,3295.9998 237,116 927,6 1150,-113 -184,-588 -1314,532 -1551,-2758.9998 1056,-1 1868,-359 2528,314 380.9999,388 128,477 451.9999,602 l 31,-238 c -1,-63 -12,-206 -4,-299 140,-1774 -2620.9999,-803 -3561.9999,-803 z"
       class="fil1" /><path
       style="fill:#fdfdfd"
       inkscape:connector-curvature="0"
       id="path73"
       d="m 7425.9001,20779.637 c -2,-1789 391,-1440 758,-1843 -283,-161 -9,161 -1224,128 -931,-26 -368,2164 -311,2270 114,212 1844,1048 2260,503 222,-291 -102,-227 459,-1186 378,-648 -192,157 -608,264 -413,106 -922,-19 -1334,-136 z"
       class="fil1" /><path
       style="fill:#fdfdfd"
       inkscape:connector-curvature="0"
       id="path75"
       d="m 10248.9,24230.637 c 401,-120 744,-264 1178,-373 397,-100 842,-224 1150,-402 315,-182 561,-455 652,-912 71,-350 21,-263 -138,-510 -158,-245 -116,-456 -278,-530 -282,355 140,982 -707,1478 -251,147 -1334,578 -1607,627 -284,-1018 -775.9999,-1897 -173,-2617 257,-308 487,-218 394,-549 -800.9999,289 -822.9999,123 -1050.9999,388 -238,278 -387,679 -288,1165 l 867.9999,2235 z"
       class="fil1" /><path
       style="fill:#fdfdfd"
       inkscape:connector-curvature="0"
       id="path77"
       d="m 10533.9,8695.6372 c -101,-394 -388,-423 -277,-1050 56,-317 237,-730 416,-942 1480,105 1443,887 1625,1125 106,-168 -23,-732 48,-1000 104,-388 229,-500 -170,-770 -334,-227 -1764,-484 -2043,-170 -272.9999,308 -891.9999,1114 -923.9999,1617 -44,684 454,382 979.9999,895 197,193 96,205 345,295 z"
       class="fil1" /><path
       style="fill:#fdfdfd"
       inkscape:connector-curvature="0"
       id="path79"
       d="m 5536.9001,10011.637 870,-34.9998 c 77,-623 -111,-1148 -213,-1722 586,5 1315,38 1719,-198 l -146,-699 c -8,-27 117,-262 -557,-274 -483,-9 -999,234 -1394,357 -620,194 -438,69 -559,1127 -73,632 20,1065 280,1443.9998 z"
       class="fil1" /><path
       style="fill:#fdfdfd"
       inkscape:connector-curvature="0"
       id="path81"
       d="m 21144.9,18936.637 c 361,397 760,53 758,1843 -682,194 -1327,340 -1780,-144 -597,-637 8,239 97,480 136,362 -39,1251 1329,789 125,-42 1012,-425 1073,-488 141,-146 650,-2322 -205,-2355 -149,-5 -439,56 -708,-1 -324,-69 -360,-240 -564,-124 z"
       class="fil1" /><path
       style="fill:#fdfdfd"
       inkscape:connector-curvature="0"
       id="path83"
       d="m 21415.9,8056.6372 c 405,236 1134,203 1719,198 -101,570 -289,1100 -212,1751.9998 l 869,-26.9998 c 404,-542 309,-1401 217,-2134 -45,-357 -203,-313 -496,-405 -1959,-611 -1883,-508 -2097,616 z"
       class="fil1" /><path
       style="fill:#fdfdfd"
       inkscape:connector-curvature="0"
       id="path85"
       d="m 17030.9,7828.6372 c 182,-238 144,-1020 1625,-1125 858,1018 166,1887 139,1992 339,-123 176,-272 674,-532 535,-279 1323,-270 -243,-2235 -252,-317 -1673,-113 -2030,103 -401,243 -343,369 -230,741 89,295 -48,876 65,1056 z"
       class="fil1" /><path
       style="fill:#fdfdfd"
       inkscape:connector-curvature="0"
       id="path87"
       d="m 7132.9001,14344.637 c -107,-203 -1026,146 -1474,-1421 352,-235 906,-787 1451,-668 352,77 289,238 502,89 -283,-207 -471,-226 -710,-516 -220,-267 -213,-584 -698,-475 -531,119 -1111,846 -1405,1222 -251,323 227,1554 469,1874 491,649 720,94 1260,-13 182,-37 450,-7 605,-92 z"
       class="fil1" /><path
       style="fill:#fdfdfd"
       inkscape:connector-curvature="0"
       id="path89"
       d="m 16397.9,23740.637 c -121,-247 -301,-321 -436,-553 -153,-261 -148,-465 -257,-701 -306,258 248,347 -230,1043 -191,277 -556,620 -846,711 -219,-154 -559,-418 -745,-670 -480,-649 -21,-745 -260,-1084 -121,261 -96,450 -283,745 -157,248 -1147,762 659,1705 789,412 567,404 1376,-24 476,-253 1006,-543 1022,-1172 z"
       class="fil1" /><path
       style="fill:#fdfdfd"
       inkscape:connector-curvature="0"
       id="path91"
       d="m 21716.9,12344.637 c 202,141 125,20 446,-73 229,-67 387,-32 621,64 364,151 600,397 886,588 -445,1556 -1369,1223 -1474,1421 260,144 487,-54 1009,258 378,225 538,232 824,-114 230,-280 735,-1575 532,-1875 -237,-351 -917,-1108 -1383,-1245 -499,-146 -495,127 -720,421 -247,324 -434,330 -741,555 z"
       class="fil1" /><path
       style="fill:#fdfdfd"
       inkscape:connector-curvature="0"
       id="path93"
       d="m 24265.9,15994.637 c 124,139 282,505 421,723 191,301 416,477 542,738 -699,238 -972,584 -1488,842 41,84 457,621 567,755 770,-53 1371,-806 1964,-1388 -374,-921 -387,-1544 -1187,-2098 -154,81 -717,353 -819,428 z"
       class="fil1" /><path
       style="fill:#fdfdfd"
       inkscape:connector-curvature="0"
       id="path95"
       d="m 3056.9001,17664.637 c 612,601 1174,1314 1964,1388 110,-134 526,-671 568,-755 -516,-258 -789,-604 -1489,-842 126,-261 334,-417 515,-695 131,-201 332,-642 444,-761 -87,-70 -672,-358 -815,-433 -800,554 -813,1177 -1187,2098 z"
       class="fil1" /><path
       style="fill:#fdfdfd"
       inkscape:connector-curvature="0"
       id="path97"
       d="m 19384.9,24729.637 c -194,74 -290,-100 -792,-293 -163,-62 -263,-91 -427,-141 -90,-27 -128,-49 -221,-64 -171,-27 -300,-108 -406,851 864,812 1373,332 2248,686 344,-358 1004,-1455 960,-2214 -173,-130 -587,-272 -819,-424 -324,461 -434,1313 -543,1599 z"
       class="fil1" /><path
       style="fill:#fdfdfd"
       inkscape:connector-curvature="0"
       id="path99"
       d="m 8581.9001,23554.637 c -43,759 616,1856 961,2214 873.9999,-354 1382.9999,126 2247.9999,-686 -122,-1101 -306,-882 -570,-805 l -880,336 c -260,139 -166,126 -353.9999,124 -8,0 -29,-2 -43,-8 -199,-545 -202,-1114 -543,-1599 -232,152 -646,294 -819,424 z"
       class="fil1" /><path
       style="fill:#fdfdfd"
       inkscape:connector-curvature="0"
       id="path101"
       d="m 17239.9,20280.637 c -339,-68 -660,-371 -1056,-490 -742,1388 402,1312 1618,1752 135,-365 469,-1074 538,-1372 192,-834 -422,-803 -885,-1009 -128,238 -207,793 -215,1119 z"
       class="fil1" /><path
       style="fill:#fdfdfd"
       inkscape:connector-curvature="0"
       id="path103"
       d="m 11526.9,21542.637 c 1216,-440 2360,-364 1619,-1752 -402,121 -715,417 -1058,496 -6,-328 -85,-886 -214,-1125 -455,203 -1037,164 -898,950 47,265 427,1094 551,1431 z"
       class="fil1" /><path
       style="fill:#fdfdfd"
       inkscape:connector-curvature="0"
       id="path105"
       d="m 9005.9001,10487.637 c 154,2334 108,2041 1380.9999,2017 -94,-309 -228,-820 -298,-1141 l 1123,63 c 55,-635 -26,-1027 -587,-1127 -326,-58 -1148.9999,161 -1618.9999,188 z"
       class="fil1" /><path
       style="fill:#fdfdfd"
       inkscape:connector-curvature="0"
       id="path107"
       d="m 18116.9,11419.637 1123,-62 c -70,328 -204,837 -298,1147 1251,23 1226,343 1381,-2017 -470,-27 -1293,-246 -1618,-188 -584,104 -637,563 -588,1120 z"
       class="fil1" /><path
       style="fill:#fdfdfd"
       inkscape:connector-curvature="0"
       id="path109"
       d="m 13979.9,10092.637 c 143,-247.9998 497,-786.9998 738,-913.9998 194,377 444,589 631,913.9998 91,-89 119,-150.9998 217,-249.9998 152,-151 659,-379 203,-1015 -101,-141 -989,-953 -1138,-1049 -324,463 -1611,1156 -1167,1794 0,0 485,489.9998 516,519.9998 z"
       class="fil1" /><path
       style="fill:#fdfdfd"
       inkscape:connector-curvature="0"
       id="path111"
       d="m 19652.9,15474.637 c 232,299 555,546 702,875 l -1055,441 c 339,419 388,997 1137,683 214,-90 1102,-720 1254,-868 -153,-281 -566,-1081 -755,-1290 -502,-556 -781,-214 -965,-81 -56,40 -143,91 -171,111 l -147,129 z"
       class="fil1" /><path
       style="fill:#fdfdfd"
       inkscape:connector-curvature="0"
       id="path113"
       d="m 11381.9,10279.637 508,-995.9998 c 310,-14 766,196 1157,159 -9,-794 666,-1290 -1668,-1309 -222,228 -653,795 -776,1128 -226,609 155,655 779,1017.9998 z"
       class="fil1" /><path
       style="fill:#fdfdfd"
       inkscape:connector-curvature="0"
       id="path115"
       d="m 7637.9001,16605.637 c 149,146 1012,757 1204,846 788,364 826,-216 1174.9999,-634 l -1036.9999,-481 c 141,-316 464,-563 696,-862 l -275,-211 c -195,-137 -464,-503 -973,15 -197,201 -631,1036 -790,1327 z"
       class="fil1" /><path
       style="fill:#fdfdfd"
       inkscape:connector-curvature="0"
       id="path117"
       d="m 16282.9,9442.6372 c 361,34 840,-131 1169,-182 l 512,1009.9998 606,-324.9998 c 633,-394 -332,-1516 -620,-1812 -2328,19 -1659,502 -1667,1309 z"
       class="fil1" /><path
       style="fill:#fdfdfd"
       inkscape:connector-curvature="0"
       id="path119"
       d="m 8505.9001,18583.637 c 0,243 75,617 121,849 83,415 81,356 469,518 436,181 1068.9999,557 1432.9999,113 l 42,-101 c 4,-12 13,-38 18,-53 86,-295 35,-302 212,-607 l -1123.9999,-320 c -17,-1036 94,-1127 -274,-1112 -622,24 -897,52 -897,713 z"
       class="fil1" /><path
       style="fill:#fdfdfd"
       inkscape:connector-curvature="0"
       id="path121"
       d="m 8893.9001,14627.637 c -139,-303 -364,-749 -430,-1084 351,-197 556,-484 853,-695 -480,-438 -513,-835 -1057,-570 -196,95 -858,751 -964,951 -117,218 246,1898 927,1700 4,-1 665,-299 671,-302 z"
       class="fil1" /><path
       style="fill:#fdfdfd"
       inkscape:connector-curvature="0"
       id="path123"
       d="m 20011.9,12848.637 c 297,211 502,498 853,695 -66,335 -291,781 -429,1084 l 624,284 c 737,294 1050,-1499 995,-1640 -73,-186 -780,-880 -939,-968 -562,-312 -577,65 -1104,545 z"
       class="fil1" /><path
       style="fill:#fdfdfd"
       inkscape:connector-curvature="0"
       id="path125"
       d="m 19658.9,19006.637 -1135,293 c 176,302 122,270 201,554 5,19 10,38 15,56 207,678 1045,228 1493,41 390,-163 385,-103 468,-518 236,-1177 242,-1512 -709,-1557 -382,-18 -347,-102 -333,1131 z"
       class="fil1" /><path
       style="fill:#fdfdfd"
       inkscape:connector-curvature="0"
       id="path127"
       d="m 15605.9,20716.637 -914,664 c -215,-80 -707,-490 -968,-664 -222,503 -735,697 -253,1215 129,140 1000,678 1174,691 163,13 1014,-495 1178,-655 151,-147 305,-375 180,-652 -64,-141 -257,-281 -397,-599 z"
       class="fil1" /><path
       style="fill:#fdfdfd"
       inkscape:connector-curvature="0"
       id="path129"
       d="m 18509.9,13414.637 c 148,169 432,424 578,545 l -256,816 c 882,799 1344,-206 1582,-1067 -558,-631 -843,-877 -1539,-839 l -365,545 z"
       class="fil1" /><path
       style="fill:#fdfdfd"
       inkscape:connector-curvature="0"
       id="path131"
       d="m 15829.9,11019.637 855,-102 407,723 c 370,-196 815,-201 688,-869 -57,-301 -411,-815.9998 -534,-1090.9998 -701,68 -1826,190 -1538,1031.9998 l 122,307 z"
       class="fil1" /><path
       style="fill:#fdfdfd"
       inkscape:connector-curvature="0"
       id="path133"
       d="m 12226.9,11634.637 420,-692 854,52 c 7,10 17,-33 20,-23 l 166,-518 c -3,-608.9998 -1126,-726.9998 -1604,-772.9998 -121,272 -478,796.9998 -533,1090.9998 -127,669 317,673 677,863 z"
       class="fil1" /><path
       style="fill:#fdfdfd"
       inkscape:connector-curvature="0"
       id="path135"
       d="m 8914.9001,13708.637 c 242,874 704,1862 1600.9999,1060 l -304,-798 c 175,-132 459,-387 590,-544 l -346,-558 c -697.9999,-37 -981.9999,208 -1540.9999,840 z"
       class="fil1" /><path
       style="fill:#fdfdfd"
       inkscape:connector-curvature="0"
       id="path137"
       d="m 14628.9,20926.637 c 238,-91 854,-539 992,-718 441,-577 0,-748 -232,-1113 -672,574 -776,574 -1449,0 -239,376 -656,488 -262,1071 188,277 670,520 951,760 z"
       class="fil1" /><path
       style="fill:#fdfdfd"
       inkscape:connector-curvature="0"
       id="path139"
       d="m 17409.9,18159.637 c 167,476 -2,765 623,840 371,45 892,-215 1261,-274 1,-425 117,-919 0,-1276 -176,-539 -394,-437 -969,-468 -17,158 -19,297 -37,452 -4,30 -31,226 -36,243 l -60,154 c -154,220 -559,189 -782,329 z"
       class="fil1" /><path
       style="fill:#fdfdfd"
       inkscape:connector-curvature="0"
       id="path141"
       d="m 10034.9,18512.637 0,213 c 377,60 1364,555 1734,39 112,-155 80,-404 151,-605 -793,-275 -789,-146 -870,-665 -26,-167 -26,-330 -46,-513 -540,29 -723,-77 -929,368 -167.9999,363 -46,778 -40,1163 z"
       class="fil1" /><path
       style="fill:#fdfdfd"
       inkscape:connector-curvature="0"
       id="path143"
       d="m 19676.9,10072.637 c 638,77 519,102 1100,34 -34,454 -516,1639 369,1008 440,-314 534,-1054 546,-1713.9998 -329,-45 -1012,-137 -1278,-85 -364,72 -783,351 -737,756.9998 z"
       class="fil1" /><path
       style="fill:#fdfdfd"
       inkscape:connector-curvature="0"
       id="path145"
       d="m 7636.9001,9400.6372 c 36,1961.9998 1085,2113.9998 1083,1675.9998 -2,-381 -144,-644 -168,-968 567,74 460,44 1100,-38 45,-392.9998 -352,-660.9998 -680,-741.9998 -299,-73 -981,24 -1335,72 z"
       class="fil1" /><path
       style="fill:#fdfdfd"
       inkscape:connector-curvature="0"
       id="path147"
       d="m 21646.9,15780.637 c 158,438 435,646 627,966 -336,245 -707,343 -985,619 862,674 1408,121 2162,-343 -312,-452 -911,-1731 -1804,-1242 z"
       class="fil1" /><path
       style="fill:#fdfdfd"
       inkscape:connector-curvature="0"
       id="path149"
       d="m 13874.9,8033.6372 c 294,-254 530,-450 737,-832 244,126 56,-10 238,210 79,95 94,133 188,236 142,154 270,260 417,386 655,-967 -405,-1500 -757,-2022 -654,445 -1350,1246 -823,2022 z"
       class="fil1" /><path
       style="fill:#fdfdfd"
       inkscape:connector-curvature="0"
       id="path151"
       d="m 18019.9,22051.637 c -375,-166 -579,-274 -1036,-407 -168,1166 889,1109 1579,1508 236,-645 738,-1890 -191,-2169 -55,163 -135,349 -183,520 l -169,548 z"
       class="fil1" /><path
       style="fill:#fdfdfd"
       inkscape:connector-curvature="0"
       id="path153"
       d="m 10765.9,23152.637 c 691,-399 1747,-342 1579,-1508 -457,133 -660,241 -1036,407 l -169,-548 c -49,-175 -128,-353 -183,-520 -929,279 -427,1524 -191,2169 z"
       class="fil1" /><path
       style="fill:#fdfdfd"
       inkscape:connector-curvature="0"
       id="path155"
       d="m 5877.9001,17022.637 c 754,464 1300,1017 2162,343 -278,-276 -650,-374 -985,-619 192,-320 470,-528 628,-966 -1076,-318 -1369,612 -1805,1242 z"
       class="fil1" /><path
       style="fill:#fdfdfd"
       inkscape:connector-curvature="0"
       id="path157"
       d="m 13781.9,13615.637 354,-166 c -395,-794 -254,-547 -213,-1444 35,-786 -620,-574 -1033,-742 -974,1250 142,1308 510,1696 228,239 221,430 382,656 z"
       class="fil1" /><path
       style="fill:#fdfdfd"
       inkscape:connector-curvature="0"
       id="path159"
       d="m 11411.9,17563.637 c 446,311 1078,357 1296,-192 122,-308 57,-418 277,-716 181,-246 343,-279 508,-474 l -201,-272 c -515,169 -251,407 -1276,488 -657,52 -692,507 -604,1166 z"
       class="fil1" /><path
       style="fill:#fdfdfd"
       inkscape:connector-curvature="0"
       id="path161"
       d="m 15475.9,12578.637 c 0,370 -148,600 -271,848 l 340,195 c 491,-695 -78,-421 945,-1018 597,-348 252,-951 -51,-1340 -312,127 -641,26 -880,267 -280,281 -82,656 -83,1048 z"
       class="fil1" /><path
       style="fill:#fdfdfd"
       inkscape:connector-curvature="0"
       id="path163"
       d="m 15825.9,16173.637 c 174,201 334,232 518,482 220,299 154,407 277,716 220,552 851,502 1296,192 197,-1565 -638,-962 -1325,-1299 -240,-118 -321,-277 -550,-351 l -216,260 z"
       class="fil1" /><path
       style="fill:#fdfdfd"
       inkscape:connector-curvature="0"
       id="path165"
       d="m 14485.9,16958.637 c 0,1213 -1397,1220 143,2182 322,-86 845,-431 760,-885 -77,-405 -545,-529 -545,-1297 0,-207 113,-306 -153,-328 -311,-25 -205,122 -205,328 z"
       class="fil1" /><path
       style="fill:#fdfdfd"
       inkscape:connector-curvature="0"
       id="path167"
       d="m 16213.9,14485.637 90,362 c 1275,-253 893,22 1521,126 617,101 751,-469 883,-894 -1280,-1049 -934,-358 -1733,135 -263,162 -630,176 -761,271 z"
       class="fil1" /><path
       style="fill:#fdfdfd"
       inkscape:connector-curvature="0"
       id="path169"
       d="m 10620.9,14079.637 c 128,411 250,952 821,902 622,-54 258,-394 1562,-139 l 108,-358 c -123,-90 -468,-105 -713,-244 -872,-493 -475,-1229 -1778,-161 z"
       class="fil1" /><path
       style="fill:#fdfdfd"
       inkscape:connector-curvature="0"
       id="path171"
       d="m 11770.9,13251.637 c 23,-1000 -96,-312 426,-680 29,-25 123,70 -42,-409 -175,-508 -863,-419 -1542,-419 -8,292 131,838 244,1072 279,579 422,217 914,436 z"
       class="fil1" /><path
       style="fill:#fdfdfd"
       inkscape:connector-curvature="0"
       id="path173"
       d="m 12368.9,19787.637 c 250,-201 661,-333 949,-536 515,-363 280,-388 245,-1013 l -517,144 -224,-501 c -350,300 -615,151 -640,711 -18,405 179,782 187,1195 z"
       class="fil1" /><path
       style="fill:#fdfdfd"
       inkscape:connector-curvature="0"
       id="path175"
       d="m 17557.9,13251.637 c 461,-205 612,133 890,-388 130,-243 276,-821 268,-1120 -586,0 -1332,-65 -1526,361 -210,459 -167,456 128,533 465,122 228,72 240,614 z"
       class="fil1" /><path
       style="fill:#fdfdfd"
       inkscape:connector-curvature="0"
       id="path177"
       d="m 16284.9,18378.637 -520,-138 c -31,579 -252,644 204,983 306,227 719,345 992,564 7,-403 183,-741 187,-1137 6,-612 -286,-466 -611,-756 l -252,484 z"
       class="fil1" /><path
       style="fill:#fdfdfd"
       inkscape:connector-curvature="0"
       id="path179"
       d="m 18047.9,15378.637 226,443 -397,345 c 271,278 350,585 865,457 337,-83 812,-305 1012,-472 -826,-776 -557,-1235 -1706,-773 z"
       class="fil1" /><path
       style="fill:#fdfdfd"
       inkscape:connector-curvature="0"
       id="path181"
       d="m 14259.9,11642.637 351,-334 c 250,78 295,152 459,334 596,-893 410,-725 -397,-1861.9998 -869,1076.9998 -952,1055.9998 -413,1861.9998 z"
       class="fil1" /><path
       style="fill:#fdfdfd"
       inkscape:connector-curvature="0"
       id="path183"
       d="m 9574.9001,16151.637 c 201,168 637.9999,363 957.9999,457 567,165 597,-118 910,-427 l -394,-328 218,-481 c -1132,-453 -874,10 -1691.9999,779 z"
       class="fil1" /><path
       style="fill:#fdfdfd"
       inkscape:connector-curvature="0"
       id="path185"
       d="m 13003.9,14061.637 c 301,-391 441,-425 241,-724 -371,-553 -1562,-673 -996,278 154,259 404,411 755,446 z"
       class="fil1" /><path
       style="fill:#fdfdfd"
       inkscape:connector-curvature="0"
       id="path187"
       d="m 15198.9,16818.637 c 10,661 252,1018 843,1119 491,-619 23,-1059 -309,-1375 -269,241 -160,147 -534,256 z"
       class="fil1" /><path
       style="fill:#fdfdfd"
       inkscape:connector-curvature="0"
       id="path189"
       d="m 13286.9,17937.637 c 592,-101 833,-458 843,-1119 -374,-109 -265,-15 -533,-256 -333,316 -801,756 -310,1375 z"
       class="fil1" /><path
       style="fill:#fdfdfd"
       inkscape:connector-curvature="0"
       id="path191"
       d="m 15973.9,13567.637 c 101,248 13,34 175,245 75,97 102,152 176,249 839,-82 943,-892 869,-1021 -116,-201 -893,-254 -1220,527 z"
       class="fil1" /><path
       style="fill:#fdfdfd"
       inkscape:connector-curvature="0"
       id="path193"
       d="m 14202.9,12578.637 c 0,192 37,465 229,532 36,12 241,11 256,10 59,-3 91,-1 152,-16 515,-127 372,-829 -167,-1346 -227,192 -471,347 -470,820 z"
       class="fil1" /><path
       style="fill:#fdfdfd"
       inkscape:connector-curvature="0"
       id="path195"
       d="m 16557.9,15144.637 c -36,417 -79,354 -130,580 541,391 892,447 1418,1 -376,-432 -384,-792 -1288,-581 z"
       class="fil1" /><path
       style="fill:#fdfdfd"
       inkscape:connector-curvature="0"
       id="path197"
       d="m 11482.9,15725.637 c 526,446 878,390 1418,-1 -50,-224 -93,-166 -130,-580 -951,-170 -865,96 -1288,581 z"
       class="fil1" /><path
       style="fill:#fdfdfd"
       inkscape:connector-curvature="0"
       id="path199"
       d="m 7775.9001,20493.637 c 446,147 948,217 1197,-144 -432,-519 -551,188 -705,-986 -468,140 -483,591 -492,1130 z"
       class="fil1" /><path
       style="fill:#fdfdfd"
       inkscape:connector-curvature="0"
       id="path201"
       d="m 20353.9,20349.637 c 248,360 752,292 1199,144 -10,-568 -23,-873 -424,-1125 -201,263 -54,420 -210,630 -116,154 -377,131 -565,351 z"
       class="fil1" /><path
       style="fill:#fdfdfd"
       inkscape:connector-curvature="0"
       id="path203"
       d="m 14628.9,23793.637 c 332,-127 735,-489 674,-1010 -294,7 -400,217 -612,231 -264,18 -340,-223 -665,-231 -67,580 323,743 603,1010 z"
       class="fil1" /><path
       style="fill:#fdfdfd"
       inkscape:connector-curvature="0"
       id="path205"
       d="m 22064.9,12667.637 419,542 -162,699 c 556,-26 714,-437 908,-836 -229,-235 -707,-633 -1165,-405 z"
       class="fil1" /><path
       style="fill:#fdfdfd"
       inkscape:connector-curvature="0"
       id="path207"
       d="m 10765.9,8316.6372 402,-534 675,17 c 12,-533 -521,-541 -958,-711 -309,353 -403,859 -119,1228 z"
       class="fil1" /><path
       style="fill:#fdfdfd"
       inkscape:connector-curvature="0"
       id="path209"
       d="m 6099.9001,13072.637 c 193,397 355,810 892,839 l -149,-696 443,-529 c -540,-173 -902,93 -1186,386 z"
       class="fil1" /><path
       style="fill:#fdfdfd"
       inkscape:connector-curvature="0"
       id="path211"
       d="m 17486.9,7812.6372 681,-45 393,551 c 284,-368 193,-886 -117,-1230 -437,170 -970,178 -957,724 z"
       class="fil1" /><path
       style="fill:#00a1db"
       inkscape:connector-curvature="0"
       id="path213"
       d="m 3826.9001,6295.6372 c 593,-48 1543,-515 2104,-719 l -15,-737 c -853,-37 -2621,769 -2780,1192 -68,181 -128,447 -184,661 -108,407 -248,917 -248,1364 0,268 45,522 148,684 l 654,-164 321,-2281 z"
       class="fil2" /><path
       style="fill:#00a1db"
       inkscape:connector-curvature="0"
       id="path215"
       d="m 25789.9,8597.6372 692,124 c 325,-503 -123,-2641 -426,-2905 -334,-292 -1799,-1013 -2634,-977 l -16,742 c 601,197 1455,662 2115,711 l 269,2305 z"
       class="fil2" /><path
       style="fill:#0095c9"
       inkscape:connector-curvature="0"
       id="path217"
       d="m 7759.9001,6837.6372 c 52,-124 276,-829 292,-963 -815,-359 -1204,-261 -2049,56 -578,217 -1228,517 -1872,671 -122,1316 -685,3178 184,3990.9998 135,-59 671,-380 830,-487 -491,-1076.9998 -158,-1568.9998 -141,-2833.9998 1036,-124 1676,-785 2756,-434 z"
       class="fil3" /><path
       style="fill:#0095c9"
       inkscape:connector-curvature="0"
       id="path219"
       d="m 25197.9,6601.6372 c -1735,-413 -2475,-1365 -3921,-727 16,134 240,839 292,963 1079,-350 1722,310 2756,434 17,1265 350,1757 -141,2833.9998 160,107 695,428 830,487 870,-813.9998 303,-2669.9998 184,-3990.9998 z"
       class="fil3" /><path
       style="fill:#0095c9"
       inkscape:connector-curvature="0"
       id="path221"
       d="m 27113.9,15990.637 c -236,-691 -548,-1315 -1244,-1496 -162,339 -380,567 -505,842 656,386 1175,1761 1353,2477 -452,255 -684,608 -1042,935 -719,656 -1006,513 -1265,683 112,320 88,594 136,759 l 46,107 c 5,13 16,35 28,49 576,294 1522,-635 1762,-889 l 1385,-1439 -654,-2028 z"
       class="fil3" /><path
       style="fill:#0095c9"
       inkscape:connector-curvature="0"
       id="path223"
       d="m 22089.9,23485.637 -1003,74 c 198,1068 -771,1760 -1019,2596 -357,-18 -1164,-151 -1554,-219 -629,-112 -813,-237 -1189,-558 l -639,764 c 818,1235 2936,650 3787,1036 l 1096,-1658 c 420,-639 712,-1079 521,-2035 z"
       class="fil3" /><path
       style="fill:#0095c9"
       inkscape:connector-curvature="0"
       id="path225"
       d="m 12643.9,26142.637 c -76,-210 -159,-213 -319,-379 -129,-134 -213,-255 -321,-385 -376,321 -560,446 -1189,558 -417,73 -1161.9999,194 -1553.9999,224 -240,-846 -1217,-1532 -1018,-2604 l -1003,-69 c -248,1235 400,1833 1066,2831 183,274 372,634 551,860 375,-170 1579.9999,-152 2134.9999,-227 838,-113 1285,-256 1652,-809 z"
       class="fil3" /><path
       style="fill:#0095c9"
       inkscape:connector-curvature="0"
       id="path227"
       d="m 4596.9001,20392.637 c 267,0 194,-142 217,-389 21,-227 36,-378 104,-572 -263,-173 -537,-19 -1264,-683 -359,-327 -590,-680 -1043,-935 178,-716 697,-2091 1353,-2477 -125,-275 -343,-503 -505,-842 -1005,262 -1250,1521 -1548,2465 -92,289 -311,786 -349,1059 193,230 440,424 667,671 630,686 1409,1703 2368,1703 z"
       class="fil3" /><path
       style="fill:#0088b7"
       inkscape:connector-curvature="0"
       id="path229"
       d="m 5536.9001,10011.637 870,-34.9998 c 77,-623 -111,-1148 -213,-1722 586,5 1315,38 1719,-198 l -146,-699 c -8,-27 117,-262 -557,-274 -483,-9 -999,234 -1394,357 -620,194 -438,69 -559,1127 -73,632 20,1065 280,1443.9998 z"
       class="fil4" /><path
       style="fill:#0088b7"
       inkscape:connector-curvature="0"
       id="path231"
       d="m 5058.9001,15999.637 c -87,-70 -672,-358 -815,-433 -800,554 -813,1177 -1187,2098 613,601 1173,1314 1964,1388 110,-134 526,-671 568,-755 -516,-258 -789,-604 -1489,-842 126,-261 334,-417 515,-695 131,-201 332,-642 444,-761 z"
       class="fil4" /><path
       style="fill:#0088b7"
       inkscape:connector-curvature="0"
       id="path233"
       d="m 9400.9001,23130.637 c -232,152 -646,294 -819,424 -43,759 616,1856 961,2214 873.9999,-354 1382.9999,126 2247.9999,-686 -122,-1101 -306,-882 -570,-805 l -880,336 c -260,139 -166,126 -353.9999,124 -8,0 -29,-2 -43,-8 -199,-545 -202,-1114 -543,-1599 z"
       class="fil4" /><path
       style="fill:#0088b7"
       inkscape:connector-curvature="0"
       id="path235"
       d="m 17944.9,24231.637 c -171,-27 -300,-108 -406,851 864,812 1373,332 2248,686 344,-358 1004,-1455 960,-2214 -173,-130 -587,-272 -819,-424 -324,461 -434,1313 -543,1599 -194,74 -290,-100 -792,-293 -163,-62 -263,-91 -427,-141 -90,-27 -128,-49 -221,-64 z"
       class="fil4" /><path
       style="fill:#0088b7"
       inkscape:connector-curvature="0"
       id="path237"
       d="m 23740.9,18297.637 c 41,84 457,621 567,755 770,-53 1371,-806 1964,-1388 -374,-921 -387,-1544 -1187,-2098 -154,81 -717,353 -819,428 124,139 282,505 421,723 191,301 416,477 542,738 -699,238 -972,584 -1488,842 z"
       class="fil4" /><path
       style="fill:#0088b7"
       inkscape:connector-curvature="0"
       id="path239"
       d="m 22922.9,10006.637 869,-26.9998 c 404,-542 309,-1401 217,-2134 -45,-357 -203,-313 -496,-405 -1959,-611 -1883,-508 -2097,616 405,236 1134,203 1719,198 -101,570 -289,1100 -212,1751.9998 z"
       class="fil4" /><path
       style="fill:#007ba5"
       inkscape:connector-curvature="0"
       id="path241"
       d="m 10205.9,9421.6372 c 140,-1774 -2620.9999,-803 -3561.9999,-803 255,1309 -152,2754.9998 956,3295.9998 237,116 927,6 1150,-113 -184,-588 -1314,532 -1551,-2758.9998 1056,-1 1868,-359 2528,314 380.9999,388 128,477 451.9999,602 l 31,-238 c -1,-63 -12,-206 -4,-299 z"
       class="fil5" /><path
       style="fill:#007ba5"
       inkscape:connector-curvature="0"
       id="path243"
       d="m 19436.9,8624.6372 c -448,383 -289,376 -289,916 0,326 -131,191 3,418 338,-131 289,-756 1017,-955 454,-125 1408,39 1962,39 -26,362 -206,1546.9998 -324,1815.9998 -422,968 -1099,520 -1225,943 562,307 1459,279 1799,-587 237,-605 157,-1835.9998 305,-2595.9998 -1048,0 -2458,-670 -3248,6 z"
       class="fil5" /><path
       style="fill:#007ba5"
       inkscape:connector-curvature="0"
       id="path245"
       d="m 16376.9,7970.6372 c 266,-171 302,-374 302,-761 0,-982 -1540,-1749 -1996,-2454 -403,393 -674,670 -1143,1081 -319,279 -890,727 -890,1373 0,809 295,672 601,957 163,152 44,130 235,230 179,-315 -537,-888 90,-1749 142,-195 955,-1088 1101,-1172 187,152 883,927 1075,1173 630,811 -82,1442 91,1748 228,-120 -14,-74 534,-426 z"
       class="fil5" /><path
       style="fill:#007ba5"
       inkscape:connector-curvature="0"
       id="path247"
       d="m 24656.9,17309.637 c -772,-1221 -1201,-2566 -2258,-2576 -561,-5 -205,116 -1035,579 226,307 282,-19 794,42 379,46 628,176 829,381 188,192 888,1208 976,1443 -791,281 -1389,1129 -2375,800 -376,-125 -414,-387 -714,-356 16,152 16,78 88,208 340,605 70,522 458,747 1092,635 2238,-784 3237,-1268 z"
       class="fil5" /><path
       style="fill:#007ba5"
       inkscape:connector-curvature="0"
       id="path249"
       d="m 19502.9,23174.637 c 310,-751 777,-1542 188,-2304 -248,-321 -223,-118 -1082,-428 -127,457 694,334 690,1390 -1,334 -364,1402 -469,1776 -272,-49 -1356,-480 -1607,-627 -825,-483 -450,-1156 -707,-1478 -51,23 -462,749 -427,984 137,936 960,1156 1756,1356 468,118 811,260 1235,387 130,-200 300,-757 423,-1056 z"
       class="fil5" /><path
       style="fill:#007ba5"
       inkscape:connector-curvature="0"
       id="path251"
       d="m 12576.9,23455.637 c 315,-182 561,-455 652,-912 71,-350 21,-263 -138,-510 -158,-245 -116,-456 -278,-530 -282,355 140,982 -707,1478 -251,147 -1334,578 -1607,627 -284,-1018 -775.9999,-1897 -173,-2617 257,-308 487,-218 394,-549 -800.9999,289 -822.9999,123 -1050.9999,388 -238,278 -387,679 -288,1165 l 867.9999,2235 c 401,-120 744,-264 1178,-373 397,-100 842,-224 1150,-402 z"
       class="fil5" /><path
       style="fill:#007ba5"
       inkscape:connector-curvature="0"
       id="path253"
       d="m 7861.9001,18602.637 c 306,-157 246,-146 347,-434 101,-288 227,-324 246,-546 -358,-36 -689,713 -1676,331 -465,-179 -898,-592 -1413,-775 91,-243 746,-1192 942,-1406 197,-216 423,-347 803,-408 528,-85 632,249 854,-53 -853,-470 -427,-550 -981,-577 -447,-23 -827,226 -1063,511 l -1249,2064 c 1144,554 2049,1877 3190,1293 z"
       class="fil5" /><path
       style="fill:#006e94"
       inkscape:connector-curvature="0"
       id="path255"
       d="m 5877.9001,17022.637 c 754,464 1300,1017 2162,343 -278,-276 -650,-374 -985,-619 192,-320 470,-528 628,-966 -1076,-318 -1369,612 -1805,1242 z"
       class="fil6" /><path
       style="fill:#006e94"
       inkscape:connector-curvature="0"
       id="path257"
       d="m 7636.9001,9400.6372 c 36,1961.9998 1085,2113.9998 1083,1675.9998 -2,-381 -144,-644 -168,-968 567,74 460,44 1100,-38 45,-392.9998 -352,-660.9998 -680,-741.9998 -299,-73 -981,24 -1335,72 z"
       class="fil6" /><path
       style="fill:#006e94"
       inkscape:connector-curvature="0"
       id="path259"
       d="m 14697.9,6011.6372 c -654,445 -1350,1246 -823,2022 294,-254 530,-450 737,-833 244,127 56,-9 238,211 79,95 94,133 188,236 142,154 270,260 417,386 655,-967 -405,-1500 -757,-2022 z"
       class="fil6" /><path
       style="fill:#006e94"
       inkscape:connector-curvature="0"
       id="path261"
       d="m 20413.9,9315.6372 c -364,72 -783,351 -737,756.9998 638,77 519,102 1100,34 -34,454 -516,1639 369,1008 440,-314 534,-1054 546,-1713.9998 -329,-45 -1012,-137 -1278,-85 z"
       class="fil6" /><path
       style="fill:#006e94"
       inkscape:connector-curvature="0"
       id="path263"
       d="m 23450.9,17022.637 c -312,-452 -911,-1731 -1804,-1242 158,438 435,646 627,966 -336,245 -707,343 -985,619 862,674 1408,121 2162,-343 z"
       class="fil6" /><path
       style="fill:#006e94"
       inkscape:connector-curvature="0"
       id="path265"
       d="m 18562.9,23152.637 c 236,-645 738,-1890 -191,-2169 -55,163 -135,349 -183,520 l -169,548 c -375,-166 -579,-274 -1036,-407 -168,1166 889,1109 1579,1508 z"
       class="fil6" /><path
       style="fill:#006e94"
       inkscape:connector-curvature="0"
       id="path267"
       d="m 10765.9,23152.637 c 691,-399 1747,-342 1579,-1508 -457,133 -660,241 -1036,407 l -169,-548 c -49,-175 -128,-353 -183,-520 -929,279 -427,1524 -191,2169 z"
       class="fil6" /><path
       style="fill:#006283"
       inkscape:connector-curvature="0"
       id="path269"
       d="m 10088.9,11363.637 1123,63 c 55,-635 -26,-1027 -587,-1127 -326,-58 -1148.9999,161 -1618.9999,188 154,2334 108,2041 1380.9999,2017 -94,-309 -228,-820 -298,-1141 z"
       class="fil7" /><path
       style="fill:#006283"
       inkscape:connector-curvature="0"
       id="path271"
       d="m 13463.9,9572.6372 516,519.9998 c 143,-247.9998 497,-786.9998 738,-913.9998 194,377 444,589 631,913.9998 91,-89 119,-150.9998 217,-249.9998 152,-151 659,-379 203,-1015 -101,-141 -989,-953 -1138,-1049 -324,463 -1611,1156 -1167,1794 z"
       class="fil7" /><path
       style="fill:#006283"
       inkscape:connector-curvature="0"
       id="path273"
       d="m 18704.9,10299.637 c -584,104 -637,563 -588,1120 l 1123,-62 c -70,328 -204,837 -298,1147 1251,23 1226,343 1381,-2017 -470,-27 -1293,-246 -1618,-188 z"
       class="fil7" /><path
       style="fill:#006283"
       inkscape:connector-curvature="0"
       id="path275"
       d="m 20935.9,15315.637 c -502,-556 -781,-214 -965,-81 -56,40 -143,91 -171,111 l -147,129 c 232,299 555,546 702,875 l -1055,441 c 339,419 388,997 1137,683 214,-90 1102,-720 1254,-868 -153,-281 -566,-1081 -755,-1290 z"
       class="fil7" /><path
       style="fill:#006283"
       inkscape:connector-curvature="0"
       id="path277"
       d="m 18339.9,20170.637 c 192,-834 -422,-803 -885,-1009 -128,238 -207,793 -215,1119 -339,-68 -660,-371 -1056,-490 -742,1388 402,1312 1618,1752 135,-365 469,-1074 538,-1372 z"
       class="fil7" /><path
       style="fill:#006283"
       inkscape:connector-curvature="0"
       id="path279"
       d="m 11526.9,21542.637 c 1216,-440 2360,-364 1619,-1752 -402,121 -715,417 -1058,496 -6,-328 -85,-886 -214,-1125 -455,203 -1037,164 -898,950 47,265 427,1094 551,1431 z"
       class="fil7" /><path
       style="fill:#006283"
       inkscape:connector-curvature="0"
       id="path281"
       d="m 8841.9001,17451.637 c 788,364 826,-216 1174.9999,-634 l -1036.9999,-481 c 141,-316 464,-563 696,-862 l -275,-211 c -195,-137 -464,-503 -973,15 -197,201 -631,1036 -790,1327 149,146 1012,757 1204,846 z"
       class="fil7" /><path
       style="fill:#005672"
       inkscape:connector-curvature="0"
       id="path283"
       d="m 10856.9,12815.637 c 279,579 422,217 914,436 23,-1000 -96,-312 426,-680 29,-25 123,70 -42,-409 -175,-508 -863,-419 -1542,-419 -8,292 131,838 244,1072 z"
       class="fil8" /><path
       style="fill:#005672"
       inkscape:connector-curvature="0"
       id="path285"
       d="m 14672.9,9780.6372 c -869,1076.9998 -952,1055.9998 -413,1861.9998 l 351,-334 c 250,78 295,152 459,334 596,-893 410,-725 -397,-1861.9998 z"
       class="fil8" /><path
       style="fill:#005672"
       inkscape:connector-curvature="0"
       id="path287"
       d="m 18715.9,11743.637 c -586,0 -1332,-65 -1526,361 -210,459 -167,456 128,533 465,122 228,72 240,614 461,-205 612,133 890,-388 130,-243 276,-821 268,-1120 z"
       class="fil8" /><path
       style="fill:#005672"
       inkscape:connector-curvature="0"
       id="path289"
       d="m 19753.9,16151.637 c -826,-776 -557,-1235 -1706,-773 l 226,443 -397,345 c 271,278 350,585 865,457 337,-84 812,-305 1012,-472 z"
       class="fil8" /><path
       style="fill:#005672"
       inkscape:connector-curvature="0"
       id="path291"
       d="m 17147.9,18650.637 c 6,-612 -286,-466 -611,-756 l -252,484 -520,-138 c -31,579 -252,644 204,983 306,227 719,345 992,564 7,-403 183,-741 187,-1137 z"
       class="fil8" /><path
       style="fill:#005672"
       inkscape:connector-curvature="0"
       id="path293"
       d="m 13317.9,19251.637 c 515,-363 280,-388 245,-1013 l -517,144 -224,-501 c -350,300 -615,151 -640,711 -18,405 179,782 187,1195 250,-201 660,-333 949,-536 z"
       class="fil8" /><path
       style="fill:#005672"
       inkscape:connector-curvature="0"
       id="path295"
       d="m 10532.9,16608.637 c 567,165 597,-118 910,-427 l -394,-328 218,-481 c -1132,-453 -874,10 -1691.9999,779 201,168 637.9999,363 957.9999,457 z"
       class="fil8" /><path
       style="fill:#004960"
       inkscape:connector-curvature="0"
       id="path297"
       d="m 12248.9,13615.637 c 154,259 404,411 755,446 301,-391 441,-425 241,-724 -371,-553 -1562,-673 -996,278 z"
       class="fil9" /><path
       style="fill:#004960"
       inkscape:connector-curvature="0"
       id="path299"
       d="m 15973.9,13567.637 c 101,248 13,34 175,245 75,97 102,152 176,249 840,-82 943,-892 869,-1021 -116,-201 -893,-254 -1220,527 z"
       class="fil9" /><path
       style="fill:#004960"
       inkscape:connector-curvature="0"
       id="path301"
       d="m 17845.9,15725.637 c -376,-432 -384,-792 -1288,-581 -36,417 -79,354 -130,580 541,391 892,447 1418,1 z"
       class="fil9" /><path
       style="fill:#004960"
       inkscape:connector-curvature="0"
       id="path303"
       d="m 16041.9,17937.637 c 491,-619 23,-1059 -309,-1375 -269,241 -160,147 -534,256 10,661 252,1018 843,1119 z"
       class="fil9" /><path
       style="fill:#004960"
       inkscape:connector-curvature="0"
       id="path305"
       d="m 13286.9,17937.637 c 592,-101 833,-458 843,-1119 -374,-109 -265,-15 -533,-256 -333,316 -801,756 -310,1375 z"
       class="fil9" /><path
       style="fill:#004960"
       inkscape:connector-curvature="0"
       id="path307"
       d="m 11482.9,15725.637 c 526,446 878,390 1418,-1 -50,-224 -93,-166 -130,-580 -951,-170 -865,96 -1288,581 z"
       class="fil9" /><path
       style="fill:#004960"
       inkscape:connector-curvature="0"
       id="path309"
       d="m 14202.9,12578.637 c 0,192 37,465 229,532 36,12 241,11 256,10 59,-3 91,-1 152,-16 515,-127 372,-829 -167,-1346 -227,192 -471,347 -470,820 z"
       class="fil9" /><path
       style="fill:#00a859"
       inkscape:connector-curvature="0"
       id="path311"
       d="m 26061.9,24150.637 c 102,-1109 1152,-3282 295,-4142 -204,161 -348,310 -608,457 609,1024 18,1783 -161,2784 l -57,291 c -5,18 -13,39 -18,55 l -43,107 c -486,192 -700,312 -1131,562 -509,296 -1242,652 -1843,352 -139,161 -294,492 -376,745 2019,381 2555,-1015 3942,-1211 z"
       class="fil10" /><path
       style="fill:#00a859"
       inkscape:connector-curvature="0"
       id="path313"
       d="m 7208.9001,25361.637 c -82,-253 -237,-584 -376,-745 -601,300 -1334,-56 -1843,-352 -1455,-845 -955,60 -1558,-2116 -188,-681 -165,-1157 148,-1683 -260,-147 -404,-296 -608,-457 -209,211 -334,638 -334,1047 0,1167 522,1930 630,3095 1386,196 1922,1592 3941,1211 z"
       class="fil10" /><path
       style="fill:#009b54"
       inkscape:connector-curvature="0"
       id="path315"
       d="m 2889.9001,12215.637 c 122,-270 917,-1142 1130,-1333 -31,-68 -427,-705 -482,-777 -829,93 -1102,721 -1519,1310 -534,754 -568,149 -210,2043 114,597 302,920 740,1153 508,-401 567,-341 748,-479 -138,-317 -569,-1561 -407,-1917 z"
       class="fil11" /><path
       style="fill:#009b54"
       inkscape:connector-curvature="0"
       id="path317"
       d="m 4791.9001,20720.637 -906,-67 c -96,210 -210,405 -210,756 0,747 372,1278 450,2026 1112,337 1220,1052 2650,857 25,-327 13,-631 129,-885 -832,-532 -1637,-356 -1832,-1136 -43,-172 -84,-365 -117,-518 -76,-358 -133,-659 -164,-1033 z"
       class="fil11" /><path
       style="fill:#009b54"
       inkscape:connector-curvature="0"
       id="path319"
       d="m 24066.9,22648.637 c -344,291 -1272,522 -1643,759 116,254 104,558 129,885 1430,194 1536,-520 2650,-857 133,-1275 781,-1519 238,-2804 l -901,113 c -34,350 -91,651 -167,1009 -72,340 -115,733 -306,895 z"
       class="fil11" /><path
       style="fill:#009b54"
       inkscape:connector-curvature="0"
       id="path321"
       d="m 26031.9,14132.637 c 210,159 229,59 749,482 754,-404 725,-1156 859,-1954 148,-876 382,-270 -703,-1791 -263,-369 -549,-697 -1145,-764 -56,72 -451,709 -482,777 214,195 1005,1060 1129,1333 159,351 -263,1586 -407,1917 z"
       class="fil11" /><path
       style="fill:#009b54"
       inkscape:connector-curvature="0"
       id="path323"
       d="m 21064.9,5576.6372 c 832,-316 1407,-379 328,-1670 -165,-198 -322,-327 -480,-506 -162,-183 -263,-345 -420,-543 -1102,-20 -2067,-213 -2740,395 100,231 233,528 266,850 l 1772,-70 c 292,0 1114,1244 1274,1544 z"
       class="fil11" /><path
       style="fill:#009b54"
       inkscape:connector-curvature="0"
       id="path325"
       d="m 8263.9001,5576.6372 c 240,-449 631,-965 975,-1355 335,-378 1352.9999,-136 2071.9999,-119 32,-322 165,-619 265,-850 -777,-702 -1648.9999,-335 -2739.9999,-395 -500,633 -1630,1693 -1452,2282 66,219 125,147 394,232 196,62 292,131 486,205 z"
       class="fil11" /><path
       style="fill:#008f4f"
       inkscape:connector-curvature="0"
       id="path327"
       d="m 5758.9001,22509.637 c 925,453 2575,1191 3495,242 l -187,-551 c -1134,486 -2728,-540 -2736,-549 -70,-234 -240,-1169 -255,-1441 -40,-724 44,-911 350,-1337 l -542,-303 c -446,412 -759,973 -759,1779 0,348 86,858 158,1222 104,519 54,731 476,938 z"
       class="fil12" /><path
       style="fill:#008f4f"
       inkscape:connector-curvature="0"
       id="path329"
       d="m 11956.9,24100.637 c 44,836 463,1328 957,1710 232,180 1414,927 1725,944 158,9 2642,-866 2731,-2649 l -549,-220 -133,291 c -370,850 -1877,1454 -1996,1462 -209,14 -1473,-640 -1846,-1104 l -313,-601 c -4,-10 -14,-31 -23,-46 l -553,213 z"
       class="fil12" /><path
       style="fill:#008f4f"
       inkscape:connector-curvature="0"
       id="path331"
       d="m 20072.9,22750.637 c 929,951 2537,216 3449,-219 465,-222 397,-327 512,-900 233,-1158 352,-2197 -574,-3033 l -554,281 c 303,420 388,607 347,1331 -15,272 -184,1207 -255,1441 -8,10 -1612,1032 -2717,555 l -208,544 z"
       class="fil12" /><path
       style="fill:#008f4f"
       inkscape:connector-curvature="0"
       id="path333"
       d="m 24085.9,15611.637 c 1530,-140 2074,-2992 2017,-3218 -67,-269 -1010,-1226 -1206,-1393 -503,-430 -1019,-764 -1970,-650 l -103,647 c 1186,-37 2209,1641 2211,1651 -62,389 -250,1107 -393,1466 -264,666 -366,639 -869,1007 l 313,490 z"
       class="fil12" /><path
       style="fill:#008f4f"
       inkscape:connector-curvature="0"
       id="path335"
       d="m 16580.9,6121.6372 c 691,-730 1353,-735 2711,-698 939,1098 1158,1427 1142,2548 l 535,41 c 503,-594 164,-1586 -161,-2176 l -877,-1244 c -225,-268 -246,-201 -851,-201 -1353,0 -2451,311 -2894,1263 128,208 240,233 395,467 z"
       class="fil12" /><path
       style="fill:#008f4f"
       inkscape:connector-curvature="0"
       id="path337"
       d="m 13142.9,5654.6372 c -528,-1138 -1861,-1263 -3246.9999,-1263 -439,0 -376,38 -810,596 -574,736 -1428,2189 -724,3046 l 533,-67 c -15,-1116 205,-1447 1141.9999,-2543 1359,-37 2020,-32 2711,698 149,-225 265,-269 395,-467 z"
       class="fil12" /><path
       style="fill:#008f4f"
       inkscape:connector-curvature="0"
       id="path339"
       d="m 6421.9001,10347.637 c -952,-109 -1467,214 -1952,621 -207,173 -1174,1146 -1244,1425 -58,229 495,3085 2007,3212 l 322,-485 c -487,-356 -583,-320 -848,-956 -148,-356 -349,-1114 -413,-1516 3,-10 1025,-1688 2189,-1648 l -61,-653 z"
       class="fil12" /><path
       style="fill:#008349"
       inkscape:connector-curvature="0"
       id="path341"
       d="m 10132.9,5888.6372 c -272.9999,308 -891.9999,1114 -923.9999,1617 -44,684 454,382 979.9999,895 197,193 96,205 345,295 -101,-394 -388,-423 -277,-1050 56,-317 237,-730 416,-942 1480,105 1443,887 1625,1125 106,-168 -23,-732 48,-1000 104,-388 229,-500 -170,-770 -334,-227 -1764,-484 -2043,-170 z"
       class="fil13" /><path
       style="fill:#008349"
       inkscape:connector-curvature="0"
       id="path343"
       d="m 17195.9,6031.6372 c -401,243 -343,369 -230,741 89,295 -48,876 65,1056 182,-238 144,-1020 1625,-1125 857,1018 166,1887 139,1992 339,-123 176,-272 674,-532 535,-279 1323,-270 -243,-2235 -252,-317 -1673,-113 -2030,103 z"
       class="fil13" /><path
       style="fill:#008349"
       inkscape:connector-curvature="0"
       id="path345"
       d="m 23177.9,11368.637 c -499,-146 -495,127 -720,421 -247,324 -434,330 -741,555 202,141 125,20 446,-73 229,-67 387,-32 621,65 364,150 600,396 886,587 -445,1556 -1369,1223 -1474,1421 260,144 487,-54 1009,258 378,225 538,232 824,-114 230,-280 735,-1575 532,-1875 -237,-351 -917,-1108 -1383,-1245 z"
       class="fil13" /><path
       style="fill:#008349"
       inkscape:connector-curvature="0"
       id="path347"
       d="m 22416.9,19061.637 c -149,-5 -439,56 -708,-1 -324,-69 -360,-240 -564,-124 361,397 760,53 758,1843 -682,194 -1327,340 -1780,-144 -597,-637 8,239 97,480 135,362 -39,1251 1329,789 125,-42 1012,-425 1073,-488 141,-146 650,-2322 -205,-2355 z"
       class="fil13" /><path
       style="fill:#008349"
       inkscape:connector-curvature="0"
       id="path349"
       d="m 16397.9,23740.637 c -121,-247 -301,-321 -436,-553 -153,-261 -148,-465 -257,-701 -306,258 248,347 -230,1043 -191,277 -556,620 -846,711 -219,-154 -559,-418 -745,-670 -480,-649 -21,-745 -260,-1084 -121,261 -96,450 -283,745 -157,248 -1147,762 659,1705 789,412 567,404 1376,-24 476,-253 1006,-543 1022,-1172 z"
       class="fil13" /><path
       style="fill:#008349"
       inkscape:connector-curvature="0"
       id="path351"
       d="m 8908.9001,21837.637 c 222,-291 -102,-227 459,-1186 378,-648 -192,157 -608,264 -413,106 -922,-19 -1334,-136 -2,-1789 391,-1440 758,-1843 -283,-161 -9,161 -1224,128 -931,-26 -368,2164 -311,2270 114,212 1844,1048 2260,503 z"
       class="fil13" /><path
       style="fill:#008349"
       inkscape:connector-curvature="0"
       id="path353"
       d="m 5267.9001,14449.637 c 491,649 720,94 1260,-13 182,-37 450,-7 605,-92 -107,-203 -1026,146 -1474,-1421 352,-235 906,-787 1451,-668 352,77 288,238 502,89 -283,-207 -471,-226 -710,-516 -220,-267 -213,-584 -698,-475 -531,119 -1111,846 -1405,1222 -251,323 227,1554 469,1874 z"
       class="fil13" /><path
       style="fill:#007744"
       inkscape:connector-curvature="0"
       id="path355"
       d="m 10884.9,7088.6372 c -309,353 -403,859 -119,1228 l 402,-534 675,17 c 12,-533 -521,-541 -958,-711 z"
       class="fil14" /><path
       style="fill:#007744"
       inkscape:connector-curvature="0"
       id="path357"
       d="m 18443.9,7088.6372 c -437,170 -970,178 -957,724 l 681,-45 393,551 c 284,-368 193,-886 -117,-1230 z"
       class="fil14" /><path
       style="fill:#007744"
       inkscape:connector-curvature="0"
       id="path359"
       d="m 23229.9,13072.637 c -229,-235 -707,-633 -1165,-405 l 420,542 -163,699 c 556,-26 714,-437 908,-836 z"
       class="fil14" /><path
       style="fill:#007744"
       inkscape:connector-curvature="0"
       id="path361"
       d="m 21552.9,20493.637 c -10,-568 -23,-873 -424,-1125 -201,263 -54,420 -211,630 -115,154 -376,131 -564,351 248,360 752,292 1199,144 z"
       class="fil14" /><path
       style="fill:#007744"
       inkscape:connector-curvature="0"
       id="path363"
       d="m 14628.9,23793.637 c 332,-127 735,-489 674,-1010 -294,7 -400,217 -612,231 -264,18 -340,-223 -665,-231 -67,580 323,743 603,1010 z"
       class="fil14" /><path
       style="fill:#007744"
       inkscape:connector-curvature="0"
       id="path365"
       d="m 7775.9001,20493.637 c 446,147 948,217 1197,-144 -432,-519 -551,188 -705,-986 -468,140 -483,591 -492,1130 z"
       class="fil14" /><path
       style="fill:#007744"
       inkscape:connector-curvature="0"
       id="path367"
       d="m 6099.9001,13072.637 c 193,397 355,810 892,839 l -149,-696 443,-529 c -540,-173 -902,93 -1186,386 z"
       class="fil14" /><path
       style="fill:#006b3e"
       inkscape:connector-curvature="0"
       id="path369"
       d="m 10602.9,9261.6372 c -226,609 155,655 779,1017.9998 l 508,-995.9998 c 310,-14 766,196 1157,159 -9,-794 666,-1290 -1667,-1309 -223,228 -654,795 -777,1128 z"
       class="fil15" /><path
       style="fill:#006b3e"
       inkscape:connector-curvature="0"
       id="path371"
       d="m 17949.9,8133.6372 c -2328,19 -1659,502 -1668,1309 362,34 841,-131 1170,-182 l 512,1009.9998 606,-324.9998 c 633,-394 -332,-1516 -620,-1812 z"
       class="fil15" /><path
       style="fill:#006b3e"
       inkscape:connector-curvature="0"
       id="path373"
       d="m 21115.9,12303.637 c -562,-312 -577,65 -1104,545 297,211 502,498 853,695 -66,335 -291,781 -429,1084 l 624,284 c 737,294 1050,-1499 995,-1640 -73,-186 -780,-880 -939,-968 z"
       class="fil15" /><path
       style="fill:#006b3e"
       inkscape:connector-curvature="0"
       id="path375"
       d="m 20700.9,19432.637 c 236,-1177 242,-1512 -709,-1557 -382,-18 -347,-102 -333,1131 l -1135,293 c 176,302 122,270 201,554 l 15,56 c 207,677 1045,228 1493,41 390,-163 385,-103 468,-518 z"
       class="fil15" /><path
       style="fill:#006b3e"
       inkscape:connector-curvature="0"
       id="path377"
       d="m 16002.9,21315.637 c -64,-141 -257,-281 -397,-599 l -914,664 c -215,-80 -707,-490 -968,-664 -222,503 -735,697 -253,1215 129,140 1000,678 1174,691 163,13 1014,-495 1178,-655 151,-147 305,-375 180,-652 z"
       class="fil15" /><path
       style="fill:#006b3e"
       inkscape:connector-curvature="0"
       id="path379"
       d="m 10588.9,19909.637 c 86,-295 35,-302 212,-607 l -1123.9999,-320 c -17,-1036 94,-1127 -274,-1112 -622,24 -897,52 -897,713 0,243 75,617 121,849 83,415 81,356 469,518 436,181 1068.9999,557 1432.9999,113 l 42,-101 c 4,-12 13,-38 18,-53 z"
       class="fil15" /><path
       style="fill:#006b3e"
       inkscape:connector-curvature="0"
       id="path381"
       d="m 8222.9001,14929.637 671,-302 c -139,-303 -364,-749 -430,-1084 351,-197 556,-484 853,-695 -480,-438 -513,-835 -1057,-570 -196,95 -858,751 -964,951 -117,218 246,1898 927,1700 z"
       class="fil15" /><path
       style="fill:#006038"
       inkscape:connector-curvature="0"
       id="path383"
       d="m 11549.9,10771.637 c -127,669 317,673 677,863 l 420,-692 854,52 c 7,10 17,-33 20,-23 l 166,-518 c -3,-608.9998 -1126,-726.9998 -1604,-772.9998 -121,272 -478,796.9998 -533,1090.9998 z"
       class="fil16" /><path
       style="fill:#006038"
       inkscape:connector-curvature="0"
       id="path385"
       d="m 17245.9,9680.6372 c -701,68 -1826,190 -1538,1031.9998 l 122,307 855,-102 407,723 c 370,-196 815,-201 688,-869 -57,-301 -411,-815.9998 -534,-1090.9998 z"
       class="fil16" /><path
       style="fill:#006038"
       inkscape:connector-curvature="0"
       id="path387"
       d="m 18874.9,12869.637 -365,545 c 148,169 432,424 578,545 l -256,816 c 882,799 1344,-206 1582,-1067 -558,-631 -843,-877 -1539,-839 z"
       class="fil16" /><path
       style="fill:#006038"
       inkscape:connector-curvature="0"
       id="path389"
       d="m 19293.9,17449.637 c -176,-539 -394,-437 -969,-468 -17,158 -19,297 -37,452 -4,30 -31,226 -36,243 l -60,154 c -154,220 -559,189 -782,329 167,476 -2,765 623,840 371,45 892,-215 1261,-274 1,-425 117,-919 0,-1276 z"
       class="fil16" /><path
       style="fill:#006038"
       inkscape:connector-curvature="0"
       id="path391"
       d="m 15620.9,20208.637 c 441,-577 0,-748 -232,-1113 -672,574 -776,574 -1449,0 -239,376 -656,488 -262,1071 188,277 670,520 951,760 238,-91 854,-539 992,-718 z"
       class="fil16" /><path
       style="fill:#006038"
       inkscape:connector-curvature="0"
       id="path393"
       d="m 11768.9,18764.637 c 112,-155 80,-404 151,-605 -793,-275 -790,-146 -870,-665 -26,-167 -26,-330 -46,-513 -540,29 -723,-77 -929,368 -167.9999,363 -46,778 -40,1163 l 0,213 c 377,60 1364,555 1734,39 z"
       class="fil16" /><path
       style="fill:#006038"
       inkscape:connector-curvature="0"
       id="path395"
       d="m 8914.9001,13708.637 c 242,874 704,1862 1600.9999,1060 l -304,-798 c 175,-132 459,-387 590,-544 l -346,-558 c -697.9999,-37 -981.9999,208 -1540.9999,840 z"
       class="fil16" /><path
       style="fill:#005432"
       inkscape:connector-curvature="0"
       id="path397"
       d="m 10620.9,14079.637 c 128,411 250,952 821,902 622,-54 258,-394 1562,-139 l 108,-358 c -123,-90 -468,-105 -713,-244 -872,-493 -475,-1229 -1778,-161 z"
       class="fil17" /><path
       style="fill:#005432"
       inkscape:connector-curvature="0"
       id="path399"
       d="m 12889.9,11263.637 c -974,1250 143,1308 510,1696 228,239 221,430 382,656 l 354,-166 c -395,-794 -254,-547 -213,-1444 35,-786 -620,-574 -1033,-742 z"
       class="fil17" /><path
       style="fill:#005432"
       inkscape:connector-curvature="0"
       id="path401"
       d="m 15558.9,11530.637 c -280,281 -82,656 -83,1048 0,370 -148,600 -271,848 l 340,195 c 491,-695 -78,-421 945,-1018 597,-348 252,-951 -51,-1340 -312,127 -641,26 -880,267 z"
       class="fil17" /><path
       style="fill:#005432"
       inkscape:connector-curvature="0"
       id="path403"
       d="m 18707.9,14079.637 c -1280,-1049 -934,-358 -1733,135 -263,162 -630,176 -761,271 l 90,362 c 1275,-253 893,22 1521,126 617,101 751,-469 883,-894 z"
       class="fil17" /><path
       style="fill:#005432"
       inkscape:connector-curvature="0"
       id="path405"
       d="m 17916.9,17563.637 c 197,-1565 -638,-962 -1325,-1299 -240,-118 -321,-277 -550,-351 l -216,260 c 174,201 334,232 518,482 220,299 154,407 277,716 220,552 851,502 1296,192 z"
       class="fil17" /><path
       style="fill:#005432"
       inkscape:connector-curvature="0"
       id="path407"
       d="m 15388.9,18255.637 c -77,-405 -545,-529 -545,-1297 0,-207 113,-306 -153,-328 -311,-25 -205,122 -205,328 0,1213 -1397,1220 143,2182 322,-86 845,-431 760,-885 z"
       class="fil17" /><path
       style="fill:#005432"
       inkscape:connector-curvature="0"
       id="path409"
       d="m 12707.9,17371.637 c 122,-308 57,-418 277,-716 182,-246 343,-279 508,-474 l -201,-272 c -515,169 -251,407 -1276,488 -657,52 -692,507 -604,1166 446,311 1078,357 1296,-192 z"
       class="fil17" /><path
       style="fill:#00482d"
       inkscape:connector-curvature="0"
       id="path411"
       d="m 13142.9,15406.637 c 729,339 632,710 871,1034 400,-198 901,-198 1301,0 134,-181 146,-385 311,-606 160,-214 314,-314 560,-428 -74,-240 -203,-329 -268,-587 -69,-276 -19,-524 -40,-805 -824,-71 -761,-216 -1228,-565 -359,375 -500,505 -1199,565 -21,283 30,524 -41,804 -66,259 -192,348 -267,588 z"
       class="fil18" /><path
       style="fill:#fdfdfd"
       inkscape:connector-curvature="0"
       id="path413"
       d="m 11676.9,4171.6372 906,354 c 189,-551 472,-792 898,-1079 l 1225,-826 c 595,757 1566,678 2045,1900 l 902,-349 c -4,-1030 -1310,-1599 -2138,-2088 -271,-160 -593,-447 -886,-526 -1149,747 -2948,1476 -2952,2614 z"
       class="fil1" /><path
       style="fill:#fdfdfd"
       inkscape:connector-curvature="0"
       id="path415"
       d="m 12330.9,26951.637 c 626,1001 530,731 1680,1227 117,50 630,302 636,303 l 1335,-562 c 702,-302 661,-399 1017,-968 -313,-250 -420,-414 -674,-642 -198,156 -1328,809 -1630,824 -330,16 -1484,-661 -1691,-824 -254,228 -360,392 -673,642 z"
       class="fil1" /><path
       style="fill:#fdfdfd"
       inkscape:connector-curvature="0"
       id="path417"
       d="m 16912.9,2475.6372 c 172,168 417,376 613,486 1163,-872 1311,-282 3191,-493 535,1107 1514,1175 1575,2801 l 788,173 c 66,-1197 -809,-2007 -1478,-2733 -302,-328 -359,-508 -614,-856 -1337,143 -1510,-57 -2191,-15 -814,0 -1485,199 -1884,637 z"
       class="fil1" /><path
       style="fill:#fdfdfd"
       inkscape:connector-curvature="0"
       id="path419"
       d="m 427.90009,11727.637 c 425,1434 240,1149 490,2201 166.00001,696 513.00001,1474 1067.00001,1689 91,-273 182,-476 333,-691 -974,-688 -832,-1613 -1191,-2984 152,-241 327,-355 518,-622 584,-812 731,-1350.9998 1864,-1595.9998 -64,-680 159,-936 -516,-662 -1290,524 -1759,2212.9998 -2565.00001,2664.9998 z"
       class="fil1" /><path
       style="fill:#fdfdfd"
       inkscape:connector-curvature="0"
       id="path421"
       d="m 11236.9,27271.637 c 533,1428 2162,1524 3392,2330 230,-63 588,-338 934,-476 990,-395 2111,-733 2529,-1854 -261,-35 -556,-95 -761,-192 -348,637 -440,824 -1129,1129 l -1573,697 c -543,-319 -909,-435 -1502,-697 -728,-322 -748,-486 -1134,-1125 -200,94 -503,154 -756,188 z"
       class="fil1" /><path
       style="fill:#fdfdfd"
       inkscape:connector-curvature="0"
       id="path423"
       d="m 6244.9001,5420.6372 794,-143 c 60,-1635 1039,-1704 1573,-2805 1678.9999,109 2104.9999,-326 3190.9999,489 196,-110 441,-318 613,-486 -895,-979 -2622.9999,-449 -4073.9999,-622 -244,321 -295,506 -580,819 -662,727 -1579,1549 -1517,2748 z"
       class="fil1" /><path
       style="fill:#fdfdfd"
       inkscape:connector-curvature="0"
       id="path425"
       d="m 25864.9,9328.6372 -49,395 c 1106,239 1268,745.9998 1839,1555.9998 200,284 388,411 547,663 -366,1397 -224,2302 -1191,2984 l 353,681 c 893,-341 1098,-1922 1231,-2765 78,-497 184,-702 306,-1115 -800,-449 -1123,-1823.9998 -2281,-2521.9998 -139,-84 -369,-194 -554,-233 -294,-63 -201,82 -201,356 z"
       class="fil1" /><path
       style="fill:#fdfdfd"
       inkscape:connector-curvature="0"
       id="path427"
       d="m 2336.9001,20351.637 c 145,-154 79,-93 185,-313 65,-135 110,-222 162,-325 -312,-346 -1191,-1329 -1566,-1536 l 721,-2206 c -223,-145 -376,-286 -562,-415 -666.00001,542 -954.00001,2606 -856.00001,2818 175,378 1224.00001,1745 1916.00001,1977 z"
       class="fil1" /><path
       style="fill:#fdfdfd"
       inkscape:connector-curvature="0"
       id="path429"
       d="m 27489.9,15971.637 722,2206 c -375,207 -1255,1190 -1567,1536 l 348,638 c 678,-231 1586,-1402 1890,-1933 161,-281 -190,-2340 -831,-2862 -186,129 -338,270 -562,415 z"
       class="fil1" /><path
       style="fill:#fdfdfd"
       inkscape:connector-curvature="0"
       id="path431"
       d="m 12179.9,1819.6372 585,469 c 129,-139 676,-400 918,-546 305,-185 749,-543 1017,-627 l 1875,1186 c 191,-193 353,-311 569,-487 -339,-400 -510,-582 -1065,-860.99999 -1527,-766 -1271,-770 -2781,-23 -557,275.99999 -777,469.99999 -1118,888.99999 z"
       class="fil1" /><path
       style="fill:#fdfdfd"
       inkscape:connector-curvature="0"
       id="path433"
       d="m 20726.9,27563.637 c -790,-70 -1382,-219 -2286,-223 l -278,633 c 771,519 1911,290 2897,289 415,-728 1357,-1258 1552,-2403 -16,-9 -41,-37 -50,-22 l -656,-176 c -379,481 -930,1342 -1179,1902 z"
       class="fil1" /><path
       style="fill:#fdfdfd"
       inkscape:connector-curvature="0"
       id="path435"
       d="m 6717.9001,25859.637 c 194,1145 1137,1675 1551,2403 890,41 2165.9999,203 2883.9999,-283 l -277,-634 c -890.9999,-1 -1483.9999,148 -2273.9999,218 -267,-600 -784,-1378 -1179,-1900 l -705,196 z"
       class="fil1" /><path
       style="fill:#fdfdfd"
       inkscape:connector-curvature="0"
       id="path437"
       d="m 12890.9,4736.6372 c 296,291 339,361 553,688 697,-541 1044,-1136 1268,-1252 274,485 760,930 1173,1252 203,-327 269,-408 553,-688 -284,-863 -1029,-1116 -1738,-1619 -366,107 -1549,832 -1809,1619 z"
       class="fil1" /><path
       style="fill:#00a1db"
       inkscape:connector-curvature="0"
       id="path439"
       d="m 1838.9001,15971.637 c -223,-145 -376,-286 -562,-415 -666.00001,542 -954.00001,2606 -856.00001,2818 175,378 1224.00001,1745 1916.00001,1977 145,-154 79,-93 185,-313 65,-135 110,-222 162,-325 -312,-346 -1191,-1329 -1566,-1536 l 721,-2206 z"
       class="fil2" /><path
       style="fill:#00a1db"
       inkscape:connector-curvature="0"
       id="path441"
       d="m 7422.9001,25663.637 -705,196 c 194,1145 1137,1675 1551,2403 890,41 2165.9999,203 2883.9999,-283 l -277,-634 c -890.9999,-1 -1483.9999,148 -2273.9999,218 -267,-600 -784,-1378 -1179,-1900 z"
       class="fil2" /><path
       style="fill:#00a1db"
       inkscape:connector-curvature="0"
       id="path443"
       d="m 18440.9,27340.637 -278,633 c 771,519 1911,290 2897,289 415,-728 1357,-1258 1552,-2403 -16,-9 -41,-37 -50,-22 l -656,-176 c -379,481 -930,1342 -1179,1902 -790,-70 -1382,-219 -2286,-223 z"
       class="fil2" /><path
       style="fill:#00a1db"
       inkscape:connector-curvature="0"
       id="path445"
       d="m 26644.9,19713.637 348,638 c 678,-231 1586,-1402 1890,-1933 161,-281 -190,-2340 -831,-2862 -186,129 -338,270 -562,415 l 722,2206 c -375,207 -1255,1190 -1567,1536 z"
       class="fil2" /><path
       style="fill:#00a1db"
       inkscape:connector-curvature="0"
       id="path447"
       d="m 16574.9,2301.6372 c 191,-193 353,-311 569,-487 -339,-400 -510,-582 -1065,-860.99999 -1527,-766 -1271,-770 -2781,-23 -557,275.99999 -777,469.99999 -1118,888.99999 l 585,469 c 129,-139 676,-400 918,-546 305,-185 749,-543 1017,-627 l 1875,1186 z"
       class="fil2" /><path
       style="fill:#0095c9"
       inkscape:connector-curvature="0"
       id="path449"
       d="m 14705.9,2620.6372 c 595,757 1566,678 2045,1900 l 902,-349 c -4,-1030 -1310,-1599 -2138,-2088 -271,-160 -593,-447 -886,-526 -1149,747 -2948,1476 -2952,2614 l 906,354 c 189,-551 472,-792 898,-1079 l 1225,-826 z"
       class="fil3" /><path
       style="fill:#0088b7"
       inkscape:connector-curvature="0"
       id="path451"
       d="m 13443.9,5424.6372 c 697,-541 1044,-1136 1268,-1252 274,485 760,930 1173,1252 203,-327 269,-408 553,-688 -284,-863 -1029,-1116 -1738,-1619 -366,107 -1549,832 -1809,1619 296,291 339,361 553,688 z"
       class="fil4" /><path
       style="fill:#00a859"
       inkscape:connector-curvature="0"
       id="path453"
       d="m 28201.9,11942.637 c -366,1397 -224,2302 -1191,2984 l 353,681 c 893,-341 1098,-1922 1231,-2765 78,-497 184,-702 306,-1115 -800,-449 -1123,-1823.9998 -2281,-2521.9998 -139,-84 -369,-194 -554,-233 -294,-63 -201,82 -201,356 l -49,395 c 1106,239 1268,745.9998 1839,1555.9998 200,284 388,411 547,663 z"
       class="fil10" /><path
       style="fill:#00a859"
       inkscape:connector-curvature="0"
       id="path455"
       d="m 15562.9,29125.637 c 990,-395 2111,-733 2529,-1854 -261,-35 -556,-95 -761,-192 -348,637 -440,824 -1129,1129 l -1573,697 c -543,-319 -909,-435 -1502,-697 -728,-322 -748,-486 -1134,-1125 -200,94 -503,154 -756,188 533,1428 2162,1524 3392,2330 230,-63 588,-338 934,-476 z"
       class="fil10" /><path
       style="fill:#00a859"
       inkscape:connector-curvature="0"
       id="path457"
       d="m 1984.9001,15617.637 c 91,-273 182,-476 333,-691 -974,-688 -832,-1613 -1191,-2984 152,-241 327,-355 518,-622 584,-812 731,-1350.9998 1864,-1595.9998 -64,-680 159,-936 -516,-662 -1290,524 -1759,2212.9998 -2565.00001,2664.9998 425,1434 240,1149 490,2201 166.00001,696 513.00001,1474 1067.00001,1689 z"
       class="fil10" /><path
       style="fill:#00a859"
       inkscape:connector-curvature="0"
       id="path459"
       d="m 6244.9001,5420.6372 794,-143 c 60,-1635 1039,-1704 1573,-2805 1678.9999,109 2104.9999,-326 3190.9999,489 196,-110 441,-318 613,-486 -895,-979 -2622.9999,-449 -4073.9999,-622 -244,321 -295,506 -580,819 -662,727 -1579,1549 -1517,2748 z"
       class="fil10" /><path
       style="fill:#00a859"
       inkscape:connector-curvature="0"
       id="path461"
       d="m 20716.9,2468.6372 c 535,1107 1514,1175 1575,2801 l 788,173 c 66,-1197 -809,-2007 -1478,-2733 -302,-328 -359,-508 -614,-856 -1337,143 -1510,-57 -2191,-15 -814,0 -1485,199 -1884,637 172,168 417,376 613,486 1163,-872 1311,-282 3191,-493 z"
       class="fil10" /><path
       style="fill:#009b54"
       inkscape:connector-curvature="0"
       id="path463"
       d="m 14694.9,27133.637 c -330,16 -1484,-661 -1691,-824 -254,228 -361,392 -673,642 626,1001 530,731 1680,1227 117,50 630,302 636,303 l 1335,-562 c 702,-302 661,-399 1017,-968 -313,-250 -420,-414 -674,-642 -198,156 -1328,809 -1630,824 z"
       class="fil11" /></g></svg>